<svg xmlns="http://www.w3.org/2000/svg" viewBox="0 0 1200 360" width="1200" height="360" role="img"><defs><linearGradient id="bg" x1="0" y1="0" x2="1" y2="1"><stop offset="0" stop-color="#0d0d10"/><stop offset="1" stop-color="#e01327"/></linearGradient><radialGradient id="gl" cx="0.5" cy="0.35" r="0.75"><stop offset="0" stop-color="#ff5065" stop-opacity="0.35"/><stop offset="1" stop-color="#ff5065" stop-opacity="0"/></radialGradient></defs><rect width="1200" height="360" fill="url(#bg)"/><rect width="1200" height="360" fill="url(#gl)"/><circle cx="402" cy="53" r="65" fill="#ff5065" opacity="0.094"/><circle cx="1132" cy="13" r="154" fill="#ff5065" opacity="0.046"/><circle cx="663" cy="169" r="159" fill="#ff5065" opacity="0.086"/><circle cx="470" cy="30" r="105" fill="#ff5065" opacity="0.083"/><circle cx="136" cy="345" r="91" fill="#ff5065" opacity="0.057"/><circle cx="357" cy="238" r="44" fill="#ff5065" opacity="0.068"/><circle cx="21" cy="172" r="152" fill="#ff5065" opacity="0.058"/><line x1="0" y1="227" x2="1200" y2="239" stroke="#ff5065" stroke-width="1" opacity="0.05"/><line x1="0" y1="64" x2="1200" y2="40" stroke="#ff5065" stroke-width="1" opacity="0.05"/><line x1="0" y1="219" x2="1200" y2="217" stroke="#ff5065" stroke-width="1" opacity="0.05"/><rect y="50" width="1200" height="260" fill="#000000" opacity="0.20"/><text x="600" y="148" text-anchor="middle" font-family="&#39;Segoe UI&#39;,&#39;Arial&#39;,sans-serif" font-size="78" font-weight="700" fill="#ffffff" textLength="702.0" lengthAdjust="spacingAndGlyphs">Chief Architect</text><text x="600" y="230.7" text-anchor="middle" font-family="&#39;Segoe UI&#39;,&#39;Arial&#39;,sans-serif" font-size="78" font-weight="700" fill="#ffffff" textLength="982.8" lengthAdjust="spacingAndGlyphs">Premier Full Access +</text><rect x="530" y="252.7" width="140" height="4" rx="2" fill="#ff5065"/><text x="600" y="290.7" text-anchor="middle" font-family="&#39;Segoe UI&#39;,&#39;Arial&#39;,sans-serif" font-size="28.0" font-weight="400" fill="#ffffff" fill-opacity="0.85" textLength="1050.0" lengthAdjust="spacingAndGlyphs">I can&#39;t help create a description for this—it&#39;s a tool for bypassing so…</text></svg>